<svg width="136" height="136" viewBox="0 0 136 136" fill="none" xmlns="http://www.w3.org/2000/svg">
<circle cx="68" cy="68" r="68" fill="#F6F6F6"/>
<path d="M80.4113 45.745L80.0837 45.5H55.9163L55.5887 45.7462C53.185 47.5487 51.75 50.42 51.75 53.4238C51.75 54.055 51.8125 54.6887 51.9363 55.3062L52.9662 60.46H53.2413C53.77 59.0275 55.135 58 56.75 58H58V57.2675C58 56.3825 58.275 55.5262 58.7775 54.8112L58.7325 54.7675C59.185 55.22 59.81 55.5 60.5 55.5H75.5C76.1675 55.5 76.7737 55.2387 77.2225 54.8112C77.725 55.5262 78 56.3825 78 57.2675V58H79.25C80.865 58 82.23 59.0275 82.7575 60.4587H83.0325L84.0625 55.3062C84.1875 54.6887 84.25 54.055 84.25 53.4238C84.25 50.42 82.815 47.5488 80.4113 45.745Z" fill="#B7B1B1"/>
<path d="M74.25 96.75H61.75V89.25H74.25V96.75Z" fill="#B7B1B1"/>
<path d="M104.25 29.25H101.75C100.371 29.25 99.25 30.3712 99.25 31.75V39.25H36.75V31.75C36.75 30.3712 35.6287 29.25 34.25 29.25H31.75C30.3712 29.25 29.25 30.3712 29.25 31.75V54.25C29.25 55.6287 30.3712 56.75 31.75 56.75H34.25C35.6287 56.75 36.75 55.6287 36.75 54.25V52.2438C36.7663 52.2613 36.7787 52.28 36.795 52.2975L37.5963 61.125C37.8638 64.0625 38.8212 66.9175 40.375 69.4225L39.8425 71.0188C39.45 72.1975 39.25 73.4262 39.25 74.67C39.25 78.7025 41.3975 82.4963 44.855 84.57L45.7812 85.1263C47.4937 88.6213 48.72 92.2925 49.4363 96.09L49.4075 96.1425L49.4538 96.1675C49.7025 97.5013 49.8912 98.8512 50.015 100.214L50.6087 106.75H85.3912L85.9863 100.214C86.11 98.8512 86.2975 97.5025 86.5475 96.1675L86.5938 96.1425L86.565 96.09C87.2812 92.2925 88.5075 88.6213 90.22 85.1263L91.1462 84.57C94.6037 82.495 96.7513 78.7012 96.7513 74.67C96.7513 73.4262 96.5513 72.1975 96.1588 71.02L95.625 69.4225C97.1787 66.9175 98.1363 64.0612 98.4038 61.1238L99.2063 52.2962C99.2225 52.2787 99.235 52.26 99.2513 52.2425V54.25C99.2513 55.6287 100.372 56.75 101.751 56.75H104.251C105.63 56.75 106.751 55.6287 106.751 54.25V31.75C106.75 30.3712 105.629 29.25 104.25 29.25ZM99.25 41.75V44.25H36.75V41.75H99.25ZM89.0563 50.4075L89.1338 50.5612C87.5475 54.65 86.4688 58.925 85.9263 63.275L85.5637 66.17C83.3975 68.3762 82.0925 71.205 81.8112 74.25H73.9025L73.4338 72.845C75.8213 71.5225 77.67 69.3537 78.595 66.75H79.25C82.0075 66.75 84.25 64.5075 84.25 61.75C84.25 58.9925 82.0075 56.75 79.25 56.75H79.21C79.15 56.1075 78.9875 55.485 78.7125 54.905C79.0462 54.3438 79.25 53.6975 79.25 53C79.25 50.9325 77.5675 49.25 75.5 49.25H74.25V51.75H75.5C76.1888 51.75 76.75 52.3113 76.75 53C76.75 53.6887 76.1888 54.25 75.5 54.25H60.5C59.8113 54.25 59.25 53.6887 59.25 53C59.25 52.3113 59.8113 51.75 60.5 51.75H61.75V49.25H60.5C58.4325 49.25 56.75 50.9325 56.75 53C56.75 53.6975 56.9538 54.3438 57.2875 54.9038C57.0112 55.4838 56.85 56.1063 56.79 56.75H56.75C53.9925 56.75 51.75 58.9925 51.75 61.75C51.75 64.5075 53.9925 66.75 56.75 66.75H57.4062C58.3312 69.3537 60.18 71.5225 62.5675 72.845L62.0987 74.25H54.19C53.9088 71.2062 52.6025 68.3762 50.4375 66.17L50.075 63.275C49.5312 58.925 48.4525 54.6512 46.8675 50.5612L46.945 50.4062C47.5138 49.2675 47.8475 48.0175 47.9525 46.75H88.0488C88.1525 48.0187 88.4863 49.2688 89.0563 50.4075ZM56.8237 64.25H56.75C55.3713 64.25 54.25 63.1287 54.25 61.75C54.25 60.3713 55.3713 59.25 56.75 59.25V63C56.75 63.4225 56.7775 63.8387 56.8237 64.25ZM59.25 57.2675C59.25 57.0225 59.2875 56.7825 59.345 56.5488C59.7113 56.6688 60.095 56.75 60.5 56.75H75.5C75.905 56.75 76.2887 56.6688 76.655 56.5488C76.7125 56.7825 76.75 57.0225 76.75 57.2675V63C76.75 67.825 72.825 71.75 68 71.75C63.175 71.75 59.25 67.825 59.25 63V57.2675ZM81.75 61.75C81.75 63.1287 80.6287 64.25 79.25 64.25H79.1763C79.2225 63.8387 79.25 63.4225 79.25 63V59.25C80.6287 59.25 81.75 60.3713 81.75 61.75ZM64.25 78V75.7025L64.8838 73.8012C65.875 74.0875 66.9175 74.25 68 74.25C69.0825 74.25 70.125 74.0875 71.1162 73.8012L71.75 75.7025V78C71.75 78.6888 71.1888 79.25 70.5 79.25H65.5C64.8112 79.25 64.25 78.6888 64.25 78ZM34.2512 54.25H31.75V31.75H34.25L34.2512 45.7137C34.2512 45.7225 34.2512 45.73 34.2512 45.7388V54.25ZM41.75 74.67C41.75 73.695 41.9062 72.7337 42.215 71.8088L43.13 69.0638L42.7913 68.555C41.2713 66.275 40.3363 63.6263 40.0875 60.8975L39.2038 51.185L38.8837 50.865C37.7562 49.7375 37.0512 48.3025 36.8313 46.75H45.4525C45.355 47.6313 45.105 48.4963 44.7087 49.2875L44.1312 50.4425L44.34 50.9638C45.96 55.0138 47.055 59.26 47.595 63.585L48.0638 67.3312L48.5812 67.8488C50.5363 69.8037 51.6388 72.3763 51.7325 75.1263L46.405 82.5863L46.1438 82.4287C43.4325 80.8013 41.75 77.83 41.75 74.67ZM53.6437 76.75H61.75V78C61.75 78.5337 61.8662 79.04 62.0675 79.5C57.7625 83.3438 54.1337 87.8187 51.265 92.83C50.525 89.925 49.5075 87.0963 48.2 84.37L53.6437 76.75ZM83.1088 104.25H52.8913L52.5037 99.9875C52.3975 98.8262 52.24 97.6762 52.0487 96.535L53.1012 94.6413C55.8962 89.61 59.4937 85.1362 63.7863 81.3162C64.3025 81.5838 64.8787 81.75 65.5 81.75H70.5C71.1213 81.75 71.6975 81.5838 72.2137 81.3162C76.505 85.1375 80.1025 89.61 82.8988 94.6413L83.9513 96.535C83.76 97.6762 83.6012 98.8262 83.4963 99.9875L83.1088 104.25ZM84.735 92.83C81.8662 87.8187 78.2375 83.3438 73.9325 79.5C74.1337 79.04 74.25 78.5337 74.25 78V76.75H82.3563L87.7988 84.37C86.4912 87.095 85.475 89.925 84.735 92.83ZM97.1162 50.8662L96.7962 51.1862L95.9125 60.8988C95.665 63.6287 94.73 66.2775 93.2087 68.5575L92.87 69.0662L93.785 71.8112C94.0938 72.7337 94.25 73.6962 94.25 74.67C94.25 77.8287 92.5675 80.8013 89.8575 82.4275L89.5963 82.585L84.2687 75.125C84.3625 72.3763 85.465 69.8025 87.42 67.8475L87.9375 67.33L88.4062 63.5837C88.9475 59.26 90.0425 55.0138 91.6613 50.9625L91.87 50.4412L91.2925 49.2875C90.8962 48.495 90.6463 47.63 90.5488 46.7487H99.17C98.9488 48.3025 98.2438 49.7375 97.1162 50.8662ZM101.75 54.25V31.75H104.25L104.251 54.25H101.75Z" fill="black"/>
<path d="M63 61.75C63.6904 61.75 64.25 61.1904 64.25 60.5C64.25 59.8096 63.6904 59.25 63 59.25C62.3096 59.25 61.75 59.8096 61.75 60.5C61.75 61.1904 62.3096 61.75 63 61.75Z" fill="black"/>
<path d="M73 61.75C73.6904 61.75 74.25 61.1904 74.25 60.5C74.25 59.8096 73.6904 59.25 73 59.25C72.3096 59.25 71.75 59.8096 71.75 60.5C71.75 61.1904 72.3096 61.75 73 61.75Z" fill="black"/>
<path d="M63.2637 66.3224C64.1662 68.1287 65.9812 69.2499 67.9999 69.2499C70.0187 69.2499 71.8337 68.1287 72.7362 66.3224L72.8674 66.0587L70.6312 64.9399L70.4999 65.2049C70.0237 66.1574 69.0662 66.7499 67.9999 66.7499C66.9337 66.7499 65.9762 66.1574 65.4999 65.2049L65.3687 64.9412L63.1324 66.0599L63.2637 66.3224Z" fill="black"/>
</svg>
