<svg width="22" height="24" viewBox="0 0 22 24" fill="none" xmlns="http://www.w3.org/2000/svg">
<path d="M15.4903 4.93262H5.73201C5.35926 4.93262 5.05701 5.23487 5.05701 5.60762C5.05701 5.98037 5.35926 6.28262 5.73201 6.28262H15.491C15.8638 6.28262 16.166 5.98037 16.166 5.60762C16.166 5.23487 15.863 4.93262 15.4903 4.93262Z" fill="#151617"/>
<path d="M16.1653 9.41328C16.1653 9.04053 15.863 8.73828 15.4903 8.73828H5.73201C5.35926 8.73828 5.05701 9.04053 5.05701 9.41328C5.05701 9.78603 5.35926 10.0883 5.73201 10.0883H15.491C15.863 10.0883 16.1653 9.78603 16.1653 9.41328Z" fill="#151617"/>
<path d="M5.73201 12.5444C5.35926 12.5444 5.05701 12.8467 5.05701 13.2194C5.05701 13.5922 5.35926 13.8944 5.73201 13.8944H10.6475C11.0203 13.8944 11.3225 13.5922 11.3225 13.2194C11.3225 12.8467 11.0203 12.5444 10.6475 12.5444H5.73201Z" fill="#151617"/>
<path d="M7.48475 21.8249H3.308C2.732 21.8249 2.264 21.3562 2.264 20.7809V3.21895C2.264 2.64295 2.73275 2.17495 3.308 2.17495H17.915C18.4903 2.17495 18.959 2.6437 18.959 3.21895V9.6277C18.959 10.0005 19.2613 10.3027 19.634 10.3027C20.0068 10.3027 20.309 10.0005 20.309 9.6277V3.21895C20.309 1.89895 19.235 0.824951 17.9158 0.824951H3.308C1.988 0.824951 0.914001 1.89895 0.914001 3.21895V20.7809C0.914001 22.101 1.988 23.1749 3.308 23.1749H7.48475C7.8575 23.1749 8.15975 22.8727 8.15975 22.4999C8.15975 22.1272 7.8575 21.8249 7.48475 21.8249Z" fill="#151617"/>
<path d="M20.3502 12.6854C19.3707 11.7051 17.7755 11.7051 16.7967 12.6854L10.5905 18.8916C10.394 19.0881 10.265 19.3371 10.2185 19.6109L9.87949 21.6231C9.80749 22.0469 9.94624 22.4811 10.25 22.7849C10.5005 23.0361 10.8417 23.1749 11.1912 23.1749C11.2647 23.1749 11.3382 23.1689 11.4117 23.1561L13.4225 22.8164C13.697 22.7706 13.9467 22.6424 14.1432 22.4451L20.3495 16.2389C21.3297 15.2594 21.3297 13.6649 20.3502 12.6854ZM13.1997 21.4851L11.2107 21.8474L11.5445 19.8456L16.0107 15.3794L17.6562 17.0249L13.1997 21.4851ZM19.3955 15.2841L18.6102 16.0701L16.9647 14.4246L17.7507 13.6386C17.9772 13.4121 18.2757 13.2989 18.5735 13.2989C18.8712 13.2989 19.169 13.4121 19.3962 13.6386C19.8492 14.0931 19.8492 14.8304 19.3955 15.2841Z" fill="#151617"/>
</svg>
