<svg width="16" height="16" viewBox="0 0 16 16" fill="none" xmlns="http://www.w3.org/2000/svg">
<path fill-rule="evenodd" clip-rule="evenodd" d="M9.40884 10.5875L14.4938 15.6725C14.8188 15.9984 15.3472 15.9984 15.6722 15.6725C15.998 15.3475 15.998 14.8192 15.6722 14.4942L10.588 9.40919C11.3172 8.43502 11.7497 7.22585 11.7497 5.91585C11.7497 2.69669 9.13634 0.0825195 5.91634 0.0825195C2.69717 0.0825195 0.0830078 2.69669 0.0830078 5.91585C0.0830078 9.13585 2.69717 11.7492 5.91634 11.7492C7.22551 11.7492 8.43468 11.3175 9.40884 10.5875ZM5.91634 1.74919C8.21634 1.74919 10.083 3.61669 10.083 5.91585C10.083 8.21585 8.21634 10.0825 5.91634 10.0825C3.61717 10.0825 1.74967 8.21585 1.74967 5.91585C1.74967 3.61669 3.61717 1.74919 5.91634 1.74919Z" fill="#6E7591"/>
</svg>
